<svg width="643" height="170" fill="none" xmlns="http://www.w3.org/2000/svg">
  <g clip-path="url(#clip0)" fill="#000">
    <path d="M65.291 6.168h17.488v17.488H65.291V6.168zm-20.11 24.284h10.687v10.689H45.181V30.452zm67.14 6.609h13.98V16.082H91.325v34.966h20.996V37.061z"/>
    <path d="M116.985 41.726V78.06h18.931v17.095h34.495V41.726h-53.426zM38.964 78.06h26.327V48.917H0v65.285h38.964V78.06z"/>
    <path d="M49.739 88.834h75.405v75.408H49.739V88.834z"/>
  </g>
  <g clip-path="url(#clip1)">
    <path fill-rule="evenodd" clip-rule="evenodd" d="M582.6 66.8V65h24.1v36.6c1.067-3.067 2.7-5.533 4.9-7.4a10.3 10.3 0 013.316-1.839c1.005-.35 2.127-.605 3.366-.764a26.14 26.14 0 013.318-.197c8.159 0 13.097 3.47 14.814 10.411.481 2.061.712 4.173.686 6.289v30.1h5.6v1.8h-28.3v-1.8h4.1v-32.5a69.865 69.865 0 00-.038-2.422c-.077-2.228-.27-3.84-.579-4.838a4.253 4.253 0 00-.183-.49 2.987 2.987 0 00-.834-1.108c-.53-.428-1.219-.642-2.066-.642-1.709 0-3.257.898-4.645 2.695-.367.48-.703.982-1.005 1.505-1.633 2.8-2.45 6.2-2.45 10.2v27.6h4.3v1.8h-28.4v-1.8h5.5V66.8h-5.5v0zM289.8 94.2v-1.8h24.1v9.2c1.067-3.067 2.7-5.533 4.9-7.4a10.3 10.3 0 013.316-1.839c1.005-.35 2.127-.605 3.366-.764a26.14 26.14 0 013.318-.197c8.159 0 13.097 3.47 14.814 10.411.481 2.061.712 4.173.686 6.289v30.1h5.6v1.8h-28.3v-1.8h4.1v-32.5a69.865 69.865 0 00-.038-2.422c-.077-2.228-.27-3.84-.579-4.838a4.253 4.253 0 00-.183-.49 2.987 2.987 0 00-.834-1.108c-.53-.428-1.219-.642-2.066-.642-1.709 0-3.257.898-4.645 2.695-.367.48-.703.982-1.005 1.505-1.633 2.8-2.45 6.2-2.45 10.2v27.6h4.3v1.8h-28.4v-1.8h5.5v-44h-5.5v0zm104.3-1.8h23.7v7.9a16.028 16.028 0 013.297-4.975c2.087-2.085 4.734-3.34 7.941-3.763.85-.11 1.705-.164 2.562-.162a19.039 19.039 0 015.902.87 15.079 15.079 0 017.448 5.33c3.152 4.114 4.735 10.342 4.75 18.683v.117c0 8.4-1.717 14.6-5.15 18.6a16.365 16.365 0 01-8.189 5.084c-1.754.496-3.681.791-5.78.884-.493.022-.987.032-1.481.032a30.91 30.91 0 01-2.51-.095c-1.977-.161-3.54-.53-4.69-1.105a9.263 9.263 0 01-3.511-3.095 10.916 10.916 0 01-.389-.605V162h12.9v1.8h-37V162h5.5V94.2h-5.3v-1.8zM354.7 141h-1.2v-17.9h1.2c1.713 5.73 4.011 9.768 6.895 12.115l.105.085a15.885 15.885 0 007.368 3.208c1.2.199 2.415.297 3.632.292a23.92 23.92 0 003.466-.229c2.791-.41 4.714-1.373 5.77-2.889.665-1 1.002-2.182.964-3.382a4.917 4.917 0 00-.381-1.974c-.327-.755-.865-1.391-1.612-1.91a6.309 6.309 0 00-.507-.316 25.24 25.24 0 00-3.682-1.678 37.933 37.933 0 00-4.134-1.243 49.406 49.406 0 00-2.184-.479 48.359 48.359 0 01-5.529-1.805c-2.189-.871-4.146-1.87-5.871-2.995a11.742 11.742 0 01-5.237-8.188 18.687 18.687 0 01-.263-3.212c0-5.2 1.6-9.35 4.8-12.45a16.136 16.136 0 018.332-4.24 23.236 23.236 0 014.468-.41 23.03 23.03 0 016.56.991c1.207.36 2.389.797 3.54 1.309 1.001.421 1.814.676 2.44.765.152.022.306.034.46.035a2.31 2.31 0 001.678-.678l.022-.022c.145-.148.281-.306.405-.473.274-.36.576-.83.905-1.411.134-.237.264-.475.39-.716h1.1v15.3h-1.2c-1.965-5.011-4.555-8.573-7.769-10.686A14.282 14.282 0 00371.6 93.5c-3.133 0-5.467.55-7 1.65-1.533 1.1-2.3 2.483-2.3 4.15 0 .741.128 1.362.384 1.865.087.173.193.335.316.485.109.133.22.265.331.397.215.253.404.467.565.641.067.072.135.143.204.212a2.7 2.7 0 00.299.255 6.62 6.62 0 001.001.595c.143.072.287.143.431.213.385.187.721.341 1.008.462l.061.025c.399.166 1.014.382 1.844.648l.006.002c.194.062.389.123.584.181.365.109.676.193.931.252.111.026.223.048.335.067 4.533 1.133 7.8 2.117 9.8 2.95 2 .833 3.9 1.85 5.7 3.05 3.594 2.483 5.427 6.456 5.498 11.918l.002.332a22.737 22.737 0 01-.532 5.076c-.527 2.297-1.444 4.273-2.752 5.928a13.307 13.307 0 01-1.716 1.796c-3.333 2.9-7.9 4.35-13.7 4.35-4.133 0-8.133-.967-12-2.9a8.507 8.507 0 00-.569-.35c-.383-.214-.719-.352-1.006-.413a1.55 1.55 0 00-.325-.037 3.02 3.02 0 00-1.67.542c-.691.453-1.375 1.19-2.051 2.211-.204.309-.397.625-.579.947v0zm188 0h-1.2v-17.9h1.2c1.713 5.73 4.011 9.768 6.895 12.115l.105.085a15.885 15.885 0 007.368 3.208c1.2.199 2.415.297 3.632.292a23.92 23.92 0 003.466-.229c2.791-.41 4.714-1.373 5.77-2.889.665-1 1.002-2.182.964-3.382a4.917 4.917 0 00-.381-1.974c-.327-.755-.865-1.391-1.612-1.91a6.309 6.309 0 00-.507-.316 25.24 25.24 0 00-3.682-1.678 37.933 37.933 0 00-4.134-1.243 49.406 49.406 0 00-2.184-.479 48.359 48.359 0 01-5.529-1.805c-2.189-.871-4.146-1.87-5.871-2.995a11.742 11.742 0 01-5.237-8.188 18.687 18.687 0 01-.263-3.212c0-5.2 1.6-9.35 4.8-12.45a16.136 16.136 0 018.332-4.24 23.236 23.236 0 014.468-.41 23.03 23.03 0 016.56.991c1.207.36 2.389.797 3.54 1.309 1.001.421 1.814.676 2.44.765.152.022.306.034.46.035a2.31 2.31 0 001.678-.678l.022-.022c.145-.148.281-.306.405-.473.274-.36.576-.83.905-1.411.134-.237.264-.475.39-.716h1.1v15.3h-1.2c-1.965-5.011-4.555-8.573-7.769-10.686A14.282 14.282 0 00559.6 93.5c-3.133 0-5.467.55-7 1.65-1.533 1.1-2.3 2.483-2.3 4.15 0 .741.128 1.362.384 1.865.087.173.193.335.316.485.109.133.22.265.331.397.215.253.404.467.565.641.067.072.135.143.204.212a2.7 2.7 0 00.299.255 6.62 6.62 0 001.001.595c.143.072.287.143.431.213.385.187.721.341 1.008.462l.061.025c.399.166 1.014.382 1.844.648l.006.002c.194.062.389.123.584.181.365.109.676.193.931.252.111.026.223.048.335.067 4.533 1.133 7.8 2.117 9.8 2.95 2 .833 3.9 1.85 5.7 3.05 3.594 2.483 5.427 6.456 5.498 11.918l.002.332a22.737 22.737 0 01-.532 5.076c-.527 2.297-1.444 4.273-2.752 5.928a13.307 13.307 0 01-1.716 1.796c-3.333 2.9-7.9 4.35-13.7 4.35-4.133 0-8.133-.967-12-2.9a8.507 8.507 0 00-.569-.35c-.383-.214-.719-.352-1.006-.413a1.55 1.55 0 00-.325-.037 3.02 3.02 0 00-1.67.542c-.691.453-1.375 1.19-2.051 2.211-.204.309-.397.625-.579.947v0zm-34.4-24.5h2.9v-7.7c.001-1.286-.015-2.572-.05-3.857-.108-3.811-.389-6.593-.842-8.346a9.457 9.457 0 00-.158-.547 6.167 6.167 0 00-.695-1.496c-.719-1.096-1.747-1.678-3.083-1.747a5.253 5.253 0 00-.272-.007c-1.2 0-2.283.317-3.25.95a3.441 3.441 0 00-.88.806c-.373.497-.563 1.083-.57 1.758v.036c.004.919.137 1.833.396 2.714.062.214.13.426.204.636h2.5c.261.698.453 1.42.574 2.156.151.885.226 1.849.226 2.894a6.323 6.323 0 01-1.842 4.475 9.032 9.032 0 01-.658.625c-1.667 1.433-3.767 2.15-6.3 2.15a12.875 12.875 0 01-3.351-.397c-2.913-.787-4.613-2.744-5.101-5.871a13.168 13.168 0 01-.148-2.032 10.177 10.177 0 016.162-9.731c3.049-1.51 7.231-2.355 12.546-2.533.73-.024 1.461-.036 2.192-.036 7.933 0 13.417 1.35 16.45 4.05a11.152 11.152 0 012.773 3.987c1.185 2.742 1.777 6.363 1.777 10.863v20.3c-.004.591.031 1.181.102 1.767.159 1.237.505 2.14 1.037 2.708a2.307 2.307 0 001.761.725 2.378 2.378 0 001.964-1.156c.916-1.283 1.541-3.637 1.876-7.06.067-.694.12-1.388.16-2.084l1.5.1a44.771 44.771 0 01-.356 4.056c-.365 2.647-.969 4.769-1.811 6.368a8.599 8.599 0 01-1.133 1.676 8.694 8.694 0 01-3.532 2.369c-1.641.621-3.631.931-5.968.931a29.305 29.305 0 01-4.724-.348c-1.577-.259-2.956-.661-4.136-1.208a8.412 8.412 0 01-4.94-5.844 14.05 14.05 0 01-1.158 2.569c-.605 1.033-1.322 1.893-2.15 2.582a8.603 8.603 0 01-.592.449 8.693 8.693 0 01-2.37 1.123c-1.443.451-3.186.677-5.23.677-8.846 0-13.727-3.242-14.642-9.726a16.987 16.987 0 01-.158-2.374 13.733 13.733 0 01.485-3.778 9.118 9.118 0 015.165-5.972 21.745 21.745 0 014.093-1.39c2.835-.688 6.314-1.094 10.436-1.219.94-.028 1.881-.041 2.821-.041v0zM195 71.9V70h29.4c8.993 0 15.937 1.157 20.833 3.471.569.268 1.125.561 1.667.879 4.7 2.763 7.161 7.599 7.383 14.507.011.348.017.695.017 1.043a26.491 26.491 0 01-.712 6.366A15.812 15.812 0 01245.3 107a33.018 33.018 0 01-6.903 2.535c-4.543 1.158-9.975 1.746-16.295 1.765H221v26.8h12.5v1.9H195v-1.9h6.5V71.9H195zm257.3-5.1V65h24.5v73.2h5.6v1.8h-29.7v-1.8h5.5V66.8h-5.9v0zM257.5 94.2v-1.8H282v45.8h5.6v1.8h-29.7v-1.8h5.5v-44h-5.9v0zM418 109.5v18.3a18.204 18.204 0 00.281 3.279c.273 1.493.746 2.834 1.419 4.021a6.497 6.497 0 001.375 1.723c.981.851 2.19 1.277 3.625 1.277 1.973 0 3.383-1.18 4.23-3.539.101-.283.191-.571.27-.861.8-2.933 1.2-8.067 1.2-15.4v-5.2c.002-1.486-.017-2.972-.055-4.457-.11-4.097-.386-7.075-.827-8.936a11.96 11.96 0 00-.118-.457c-.667-2.367-1.967-3.55-3.9-3.55a4.65 4.65 0 00-2.821.989 7.928 7.928 0 00-1.428 1.403c-.346.432-.664.885-.951 1.358a14.078 14.078 0 00-1.567 3.75 21.642 21.642 0 00-.63 3.747c-.07.849-.105 1.701-.103 2.553v0zM223.7 71.9H221v37.5h2.1c1.036.01 2.07-.099 3.082-.324 2.377-.553 4.116-1.811 5.218-3.776 1.296-2.31 2.044-5.835 2.245-10.574.038-.908.056-1.817.055-2.726v-4.8c0-4.403-.433-7.78-1.298-10.13a9.37 9.37 0 00-.852-1.77 6.723 6.723 0 00-3.542-2.749c-1.209-.434-2.645-.651-4.308-.651zm46.195 13.392c.894.144 1.799.214 2.705.208 1.877 0 3.491-.245 4.841-.734A7.641 7.641 0 00280.4 82.9a8.627 8.627 0 002.152-3.948c.239-.983.356-1.99.348-3.002a11.68 11.68 0 00-.287-2.668 7.628 7.628 0 00-2.313-4.032 7.85 7.85 0 00-1.925-1.271c-1.524-.72-3.416-1.079-5.675-1.079-.497 0-.994.02-1.49.063-2.593.227-4.58 1.072-5.96 2.537a8.67 8.67 0 00-1.998 3.421 10.694 10.694 0 00-.452 3.179c-.001.564.035 1.128.108 1.688a9.624 9.624 0 002.142 5.012 6.526 6.526 0 002.333 1.749c.736.338 1.573.586 2.512.743v0zM511.2 127.4v-9.3h-.7a5.825 5.825 0 00-3.152.813c-2.032 1.271-3.048 4.033-3.048 8.287v1.6c0 3.467.183 5.7.55 6.7.096.274.236.53.415.758.397.495.958.742 1.685.742 1.033 0 2-.85 2.9-2.55.9-1.7 1.35-4.05 1.35-7.05v0z" fill="#000" stroke="#000" stroke-width=".945" stroke-linecap="round"/>
  </g>
  <defs>
    <clipPath id="clip0">
      <path fill="#fff" d="M0 0h170v170H0z"/>
    </clipPath>
    <clipPath id="clip1">
      <path fill="#fff" transform="translate(195 65)" d="M0 0h448v99H0z"/>
    </clipPath>
  </defs>
</svg>