<svg width="449" height="97" xmlns="http://www.w3.org/2000/svg">
  <path d="M411.6.1v34.4a18.533 18.533 0 012.22-3.582 13.049 13.049 0 014.53-3.668q4.25-2.05 9.55-2.05a28.723 28.723 0 012.697.118q1.306.124 2.403.376a11.969 11.969 0 011.8.556 11.955 11.955 0 012.163 1.127A8.996 8.996 0 01438.9 29.1a10.066 10.066 0 011.684 2.644A13.739 13.739 0 01441.35 34q.75 3 .75 8.1V69a19.041 19.041 0 00.088 1.904q.269 2.665 1.362 3.796a4.147 4.147 0 001.446.943q1.371.557 3.504.557v2.1q-1.896-.1-5.733-.249a5561.483 5561.483 0 01-.017-.001 193.971 193.971 0 00-6.546-.148 175.072 175.072 0 00-.904-.002 186.272 186.272 0 00-6.634.115 168.773 168.773 0 00-.916.035q-3.65.15-5.45.25v-2.1a9.426 9.426 0 001.467-.106q.752-.119 1.344-.371A3.489 3.489 0 00426.5 74.7a3.989 3.989 0 00.603-1.12q.429-1.162.55-3.018A24.131 24.131 0 00427.7 69V37.9a21.101 21.101 0 00-.092-2.028q-.098-1.01-.299-1.885a11.783 11.783 0 00-.109-.437 5.952 5.952 0 00-.677-1.593 4.936 4.936 0 00-1.173-1.307Q424 29.6 421.5 29.6a9.032 9.032 0 00-6.679 2.86 11.924 11.924 0 00-.321.34 11.002 11.002 0 00-2.671 5.582 15.448 15.448 0 00-.229 2.718V69q0 4.2 1.2 5.7a3.519 3.519 0 001.457 1.051q.603.246 1.367.357A9.581 9.581 0 00417 76.2v2.1q-1.378-.077-3.753-.182a900.683 900.683 0 00-1.547-.068q-3.5-.15-7.1-.15-3.9 0-7.85.15-3.95.15-5.95.25v-2.1a12.877 12.877 0 001.715-.106q2.17-.292 3.235-1.394a3.953 3.953 0 00.788-1.256q.511-1.24.628-3.214A20.908 20.908 0 00397.2 69V12.1a23.917 23.917 0 00-.107-2.345q-.232-2.35-.97-3.819a5.853 5.853 0 00-.273-.486 4.189 4.189 0 00-2.159-1.701q-1.2-.449-2.891-.449V1.2a67.314 67.314 0 005.447.295A60.756 60.756 0 00397 1.5a86.431 86.431 0 005.687-.181 74.577 74.577 0 002.113-.169Q408.5.8 411.6.1zM0 9.5v-2q1.914.077 4.854.153A756.554 756.554 0 006.75 7.7q4.25.1 8.45.1a424.007 424.007 0 008.17-.077A384.723 384.723 0 0024.5 7.7a765.425 765.425 0 012.087-.044q2.583-.05 3.996-.055A84.528 84.528 0 0130.9 7.6q13.9 0 20.8 5.5a18.492 18.492 0 014.895 5.75Q58.6 22.61 58.6 27.3q0 3.6-1.4 7.55a18.539 18.539 0 01-3.02 5.368 22.957 22.957 0 01-1.73 1.932Q49.1 45.5 43.3 47.6a31.474 31.474 0 01-5.208 1.36q-2.604.462-5.622.636a65.734 65.734 0 01-3.77.104H18.5v-2h9.2a20.595 20.595 0 003.39-.26q1.782-.298 3.205-.938A9.234 9.234 0 0036.65 45a13.387 13.387 0 003.654-5.383 16.93 16.93 0 00.546-1.717 35.502 35.502 0 001.038-6.381A42.479 42.479 0 0042 28.4a51.789 51.789 0 00-.221-4.964q-.488-5.043-2.047-8.248a13.284 13.284 0 00-.532-.988 9.185 9.185 0 00-6.091-4.328A15.47 15.47 0 0029.6 9.5q-3.037 0-4.407 1.031a2.803 2.803 0 00-.643.669q-1.112 1.644-1.149 6.562a45.483 45.483 0 00-.001.338v49a30.385 30.385 0 00.063 2.036q.162 2.398.737 3.764a4.073 4.073 0 002.286 2.228 6.069 6.069 0 00.814.272q1.921.501 5.377.653a65.301 65.301 0 001.423.047v2.2q-2.773-.089-6.986-.179A1233.405 1233.405 0 0026.1 78.1q-4.9-.1-10.3-.1-4.3 0-8.4.1a1485.262 1485.262 0 00-3.871.099q-1.837.05-3.477.099A902.073 902.073 0 000 78.3v-2a33.241 33.241 0 001.673-.144Q3.65 75.931 4.8 75.5a3.377 3.377 0 001.996-1.969 4.821 4.821 0 00.154-.431 9.598 9.598 0 00.278-1.227q.211-1.276.259-3.09A41.801 41.801 0 007.5 67.7V18.1q0-3.7-.55-5.45a3.943 3.943 0 00-.692-1.321A3.601 3.601 0 004.75 10.25Q3.1 9.6 0 9.5zm145.9 32.6V69a19.041 19.041 0 00.088 1.904q.269 2.665 1.362 3.796a4.147 4.147 0 001.446.943q1.371.557 3.504.557v2.1a205.742 205.742 0 00-1.069-.053q-1.224-.058-2.954-.129a965.096 965.096 0 00-1.677-.068q-3.8-.15-7.5-.15-3.8 0-7.45.15-2.795.115-4.563.2a233.519 233.519 0 00-.987.05v-2.1a9.426 9.426 0 001.467-.106q.752-.119 1.344-.371A3.489 3.489 0 00130.3 74.7a3.989 3.989 0 00.603-1.12q.429-1.162.55-3.018A24.131 24.131 0 00131.5 69V37.9a21.101 21.101 0 00-.092-2.028q-.098-1.01-.299-1.885a11.783 11.783 0 00-.109-.437 6.252 6.252 0 00-.617-1.512 4.97 4.97 0 00-1.183-1.388 4.115 4.115 0 00-1.271-.68q-.576-.196-1.282-.289a10.426 10.426 0 00-1.347-.081 8.857 8.857 0 00-6.596 2.805 11.467 11.467 0 00-.454.495 11.59 11.59 0 00-2.693 6.05 15.657 15.657 0 00-.157 2.25V69a22.155 22.155 0 00.073 1.876q.23 2.687 1.177 3.824 1.25 1.5 4.15 1.5v2.1q-1.378-.077-3.723-.182a922.798 922.798 0 00-1.527-.068 162.617 162.617 0 00-6.229-.148 180.243 180.243 0 00-.921-.002q-3.8 0-7.8.15-3.062.115-4.953.2a223.22 223.22 0 00-1.047.05v-2.1a12.877 12.877 0 001.715-.106q2.17-.292 3.235-1.394a3.953 3.953 0 00.788-1.256q.511-1.24.628-3.214A20.908 20.908 0 00101 69V37.5a23.917 23.917 0 00-.107-2.345q-.232-2.35-.97-3.819a5.853 5.853 0 00-.273-.486 4.189 4.189 0 00-2.159-1.701q-1.2-.449-2.891-.449v-2.1a67.314 67.314 0 005.447.295 60.756 60.756 0 00.753.005 89.072 89.072 0 005.005-.135 72.601 72.601 0 002.845-.215 59.136 59.136 0 004.14-.539 47.69 47.69 0 002.61-.511v9q2.5-5.1 6.8-7.2a20.823 20.823 0 017.329-2 25.214 25.214 0 012.271-.1q2.994 0 5.201.534a12.373 12.373 0 011.649.516 12.179 12.179 0 012.099 1.062A8.905 8.905 0 01142.8 29.1q1.6 1.9 2.35 4.9.75 3 .75 8.1zm46-16.8h2.1a105.842 105.842 0 00-.136 2.276q-.101 2.043-.164 4.574a250.831 250.831 0 00-.044 2.191q-.048 3.037-.055 7.175a842.668 842.668 0 00-.001 1.384h-2.1q-.5-3.7-1.9-7.3a15.708 15.708 0 00-2.103-3.817 13.714 13.714 0 00-1.947-2.083 9.208 9.208 0 00-4.376-2.075 13.016 13.016 0 00-2.474-.225 8.445 8.445 0 00-2.482.351 6.966 6.966 0 00-2.418 1.299 5.344 5.344 0 00-1.859 3.205 8.04 8.04 0 00-.141 1.545q0 3 1.8 5.25a20.345 20.345 0 002.209 2.334 27.458 27.458 0 002.441 1.966q2.85 2.05 5.95 4.35 5 3.7 8.45 7.45 2.487 2.704 3.181 6.577a17.979 17.979 0 01.269 3.173 13.091 13.091 0 01-.869 4.819 12.166 12.166 0 01-1.731 3.031 16.388 16.388 0 01-5.687 4.613 19.761 19.761 0 01-1.163.537 22.789 22.789 0 01-6.6 1.658 27.906 27.906 0 01-2.85.142q-2.95 0-5.272-.58a15.943 15.943 0 01-.078-.02q-2.174-.555-3.792-1.367a13.333 13.333 0 01-.258-.133q-1.3-.6-2.45-1.15-1.15-.55-2.15-.95-1-.3-1.75.7T160.3 79h-2.1a138.748 138.748 0 00.136-2.597q.102-2.328.164-5.203.089-4.115.099-10.63A1084.4 1084.4 0 00158.6 59h2.1a44.743 44.743 0 00.833 5.013 33.054 33.054 0 001.367 4.537 19.237 19.237 0 001.612 3.274 13.839 13.839 0 002.738 3.226 9.679 9.679 0 004.881 2.194 13.223 13.223 0 002.069.156q2.6 0 4.8-1.65a5.114 5.114 0 001.779-2.537q.421-1.25.421-2.913a11.152 11.152 0 00-.585-3.68A9.613 9.613 0 00178.35 63a54.014 54.014 0 00-2.571-2.439q-1.421-1.266-3.1-2.616A103.636 103.636 0 00171.1 56.7q-3.2-2.6-6.05-5.15a24.255 24.255 0 01-3.78-4.244 21.922 21.922 0 01-.87-1.356q-1.8-3.05-1.8-6.95a13.991 13.991 0 01.476-3.73A11.055 11.055 0 01161 31.4a14.301 14.301 0 015.387-4.238 17.265 17.265 0 01.963-.412 22.83 22.83 0 018.099-1.548 25.943 25.943 0 01.351-.002 28.532 28.532 0 013.474.201q2.104.258 3.876.849a34.926 34.926 0 011.633.587q1.463.57 2.396 1.125a7.468 7.468 0 01.521.338 5.563 5.563 0 00.619.367q2.531 1.269 3.388-2.355a12.549 12.549 0 00.193-1.012zm189.1 0h2.1a105.842 105.842 0 00-.136 2.276q-.101 2.043-.164 4.574a250.831 250.831 0 00-.044 2.191q-.048 3.037-.055 7.175a842.668 842.668 0 00-.001 1.384h-2.1q-.5-3.7-1.9-7.3a15.708 15.708 0 00-2.103-3.817 13.714 13.714 0 00-1.947-2.083 9.208 9.208 0 00-4.376-2.075 13.016 13.016 0 00-2.474-.225 8.445 8.445 0 00-2.482.351 6.966 6.966 0 00-2.418 1.299 5.344 5.344 0 00-1.859 3.205 8.04 8.04 0 00-.141 1.545q0 3 1.8 5.25a20.345 20.345 0 002.209 2.334 27.458 27.458 0 002.441 1.966q2.85 2.05 5.95 4.35 5 3.7 8.45 7.45 2.487 2.704 3.181 6.577a17.979 17.979 0 01.269 3.173 13.091 13.091 0 01-.869 4.819 12.166 12.166 0 01-1.731 3.031 16.388 16.388 0 01-5.687 4.613 19.761 19.761 0 01-1.163.537 22.789 22.789 0 01-6.6 1.658 27.906 27.906 0 01-2.85.142q-2.95 0-5.272-.58a15.943 15.943 0 01-.078-.02q-2.174-.555-3.792-1.367a13.333 13.333 0 01-.258-.133q-1.3-.6-2.45-1.15-1.15-.55-2.15-.95-1-.3-1.75.7T349.4 79h-2.1a138.748 138.748 0 00.136-2.597q.102-2.328.164-5.203.089-4.115.099-10.63A1084.4 1084.4 0 00347.7 59h2.1a44.743 44.743 0 00.833 5.013A33.054 33.054 0 00352 68.55a19.237 19.237 0 001.612 3.274 13.839 13.839 0 002.738 3.226 9.679 9.679 0 004.881 2.194 13.223 13.223 0 002.069.156q2.6 0 4.8-1.65a5.114 5.114 0 001.779-2.537q.421-1.25.421-2.913a11.152 11.152 0 00-.585-3.68A9.613 9.613 0 00367.45 63a54.014 54.014 0 00-2.571-2.439q-1.421-1.266-3.1-2.616A103.636 103.636 0 00360.2 56.7q-3.2-2.6-6.05-5.15a24.255 24.255 0 01-3.78-4.244 21.922 21.922 0 01-.87-1.356q-1.8-3.05-1.8-6.95a13.991 13.991 0 01.476-3.73 11.055 11.055 0 011.924-3.87 14.301 14.301 0 015.387-4.238 17.265 17.265 0 01.963-.412 22.83 22.83 0 018.099-1.548 25.943 25.943 0 01.351-.002 28.532 28.532 0 013.474.201q2.104.258 3.876.849a34.926 34.926 0 011.633.587q1.463.57 2.396 1.125a7.468 7.468 0 01.521.338 5.563 5.563 0 00.619.367q2.531 1.269 3.388-2.355A12.549 12.549 0 00381 25.3zm-60 18.6v-7.8q0-2.6-.85-4.65a6.972 6.972 0 00-1.284-2.053 6.346 6.346 0 00-1.316-1.097 6.667 6.667 0 00-1.924-.803Q314.455 27.2 313 27.2q-2 0-4 .55a8.051 8.051 0 00-1.927.796A6.701 6.701 0 00305.7 29.6a10.508 10.508 0 012.35 1.168 8.295 8.295 0 012 1.882q1.55 2.05 1.55 4.65 0 3.4-2.35 5.4-2.35 2-5.55 2a9.166 9.166 0 01-2.174-.242 5.93 5.93 0 01-3.276-2.008 8.102 8.102 0 01-1.817-4.617A10.456 10.456 0 01296.4 37a9.536 9.536 0 01.235-2.172 6.837 6.837 0 011.215-2.628 13.071 13.071 0 011.612-1.737q.858-.78 1.931-1.522a23.249 23.249 0 01.507-.341q2.8-1.6 6.75-2.5a36.008 36.008 0 015.464-.794 43.764 43.764 0 013.086-.106q4.6 0 8.3.95a13.9 13.9 0 014.156 1.793A12.594 12.594 0 01331.7 29.6a10.963 10.963 0 012.989 5.598 13.131 13.131 0 01.011.052 28.815 28.815 0 01.425 2.743q.155 1.412.222 3.041a64.315 64.315 0 01.053 2.666v27.2q0 1.865.302 2.884a3.164 3.164 0 00.198.516 1.81 1.81 0 00.519.645q.466.355 1.181.355 1 0 1.9-.5.9-.5 1.7-1.2l1 1.7q-2.1 1.8-4.85 2.75-2.75.95-6.15.95a23.023 23.023 0 01-2.59-.135q-3.867-.439-5.36-2.315-1.95-2.45-2.05-5.65a18.798 18.798 0 01-2.74 3.527A15.012 15.012 0 01315.05 77a16.067 16.067 0 01-5.294 1.758A21.152 21.152 0 01306.5 79q-6.7 0-9.7-3.5a12.409 12.409 0 01-2.973-7.566A15.989 15.989 0 01293.8 67a15.508 15.508 0 01.269-2.971q.455-2.331 1.681-4.029a15.413 15.413 0 014.573-4.171 17.888 17.888 0 01.477-.279q3.1-1.75 6.55-2.9a254.962 254.962 0 005.006-1.725 225.561 225.561 0 001.594-.575 25.597 25.597 0 002.194-.912q1.687-.8 2.906-1.738a5.328 5.328 0 001.226-1.294A4.469 4.469 0 00321 43.9zM282.6 0v69a19.041 19.041 0 00.088 1.904q.269 2.665 1.362 3.796a4.147 4.147 0 001.446.943q1.371.557 3.504.557v2.1q-1.455-.077-4.023-.182a965.096 965.096 0 00-1.677-.068q-3.8-.15-7.7-.15-3.9 0-7.85.15-3.95.15-5.95.25v-2.1a12.877 12.877 0 001.715-.106q2.17-.292 3.235-1.394a3.953 3.953 0 00.788-1.256q.511-1.24.628-3.214A20.908 20.908 0 00268.2 69V12a23.917 23.917 0 00-.107-2.345q-.232-2.35-.97-3.819a5.853 5.853 0 00-.273-.486 4.189 4.189 0 00-2.159-1.701q-1.2-.449-2.891-.449V1.1a67.314 67.314 0 005.447.295A60.756 60.756 0 00268 1.4a86.431 86.431 0 005.687-.181 74.577 74.577 0 002.113-.169Q279.5.7 282.6 0zm-60 25.5v61q0 4.351 2.057 6.003a4.104 4.104 0 00.343.247q2.4 1.55 6.6 1.55v2.1q-1.991-.077-5.124-.182a2485.098 2485.098 0 00-2.026-.068Q219.9 96 214.8 96q-3.7 0-7.25.15t-5.35.25v-2.1a12.236 12.236 0 001.616-.099q1.79-.239 2.772-1.058a3.28 3.28 0 00.262-.243q1.096-1.137 1.302-3.988a19.639 19.639 0 00.048-1.412v-50a23.07 23.07 0 00-.111-2.345q-.283-2.76-1.289-4.305a4.376 4.376 0 00-2.312-1.753q-1.141-.397-2.688-.397v-2.1a67.314 67.314 0 005.447.295 60.756 60.756 0 00.753.005 86.431 86.431 0 005.687-.181 74.577 74.577 0 002.113-.169q3.7-.35 6.8-1.05zm-1.8 49l1-1.3q1 1.8 2.85 2.8a8.3 8.3 0 002.944.921A10.507 10.507 0 00228.9 77a10.712 10.712 0 003.108-.429A8.302 8.302 0 00236 73.95q2.05-2.404 3.198-6.362a29.539 29.539 0 00.552-2.238q1.15-5.55 1.15-13.25 0-8.6-1.1-13.5a29.008 29.008 0 00-.682-2.535q-.811-2.517-1.922-3.985a7.094 7.094 0 00-.396-.48 6.523 6.523 0 00-1.922-1.49 5.915 5.915 0 00-2.678-.61 8.921 8.921 0 00-5.421 1.848 12.122 12.122 0 00-1.129.952 10.12 10.12 0 00-2.593 4.138q-.519 1.513-.709 3.335a19.318 19.318 0 00-.048.527l-.5-3.5a18.166 18.166 0 012.149-4.592 14.579 14.579 0 014.001-4.058 17.147 17.147 0 018.286-2.871 21.499 21.499 0 011.864-.079q7.6 0 12.75 6.2a19.509 19.509 0 013.382 6.214Q256 42.776 256 50.1q0 9.7-2.9 16.3a25.784 25.784 0 01-3.09 5.314 19.848 19.848 0 01-4.96 4.636 20.56 20.56 0 01-8.308 3.07 26.881 26.881 0 01-3.942.28 19.512 19.512 0 01-4.384-.476 16.472 16.472 0 01-2.716-.874 12.341 12.341 0 01-2.709-1.548A9.87 9.87 0 01220.8 74.5zm-136.9-49V69a19.041 19.041 0 00.088 1.904q.269 2.665 1.362 3.796a4.147 4.147 0 001.446.943q1.371.557 3.504.557v2.1q-1.8-.1-5.6-.25T77 77.9q-3.9 0-7.9.15-3.062.115-4.953.2a223.22 223.22 0 00-1.047.05v-2.1a12.877 12.877 0 001.715-.106q2.17-.292 3.235-1.394a3.953 3.953 0 00.788-1.256q.511-1.24.628-3.214A20.908 20.908 0 0069.5 69V37.5a23.917 23.917 0 00-.107-2.345q-.232-2.35-.97-3.819a5.853 5.853 0 00-.273-.486 4.189 4.189 0 00-2.159-1.701q-1.2-.449-2.891-.449v-2.1a67.314 67.314 0 005.447.295 60.756 60.756 0 00.753.005 89.072 89.072 0 005.005-.135 72.601 72.601 0 002.845-.215 59.136 59.136 0 004.14-.539 47.69 47.69 0 002.61-.511zm237.1 43V48a9.832 9.832 0 01-2.701 2.912 11.722 11.722 0 01-.649.438q-2.15 1.35-4.4 2.9-2.25 1.55-3.75 3.95-1.214 1.942-1.445 4.933A19.024 19.024 0 00308 64.6a16.193 16.193 0 00.135 2.168q.357 2.638 1.665 3.982a5.891 5.891 0 004.279 1.849 7.229 7.229 0 00.121.001q1.9 0 3.55-.9a6.979 6.979 0 001.281-.917q.994-.881 1.969-2.283zM78.781 1.042A13.956 13.956 0 0076.1.8a16.252 16.252 0 00-.758.017q-1.459.068-2.689.404A8.331 8.331 0 0069.45 2.85a6.531 6.531 0 00-2.105 3.168A8.494 8.494 0 0067 8.5a9.596 9.596 0 00.06 1.087 6.705 6.705 0 002.39 4.563 7.697 7.697 0 001.107.771q1.257.722 2.862 1.037a13.956 13.956 0 002.681.242 16.252 16.252 0 00.758-.017q1.459-.068 2.689-.404a8.331 8.331 0 003.203-1.629 6.531 6.531 0 002.105-3.168A8.494 8.494 0 0085.2 8.5a9.596 9.596 0 00-.06-1.087 6.705 6.705 0 00-2.39-4.563 7.697 7.697 0 00-1.107-.771q-1.257-.722-2.862-1.037z" vector-effect="non-scaling-stroke" stroke-linecap="round" fill-rule="evenodd" font-size="12" stroke="#000" stroke-width=".25mm"/>
</svg>