<svg width="450" height="93" xmlns="http://www.w3.org/2000/svg">
  <path d="M449.4 45.1v21.6q0 3.8-2.4 6-2.334 2.14-6.276 2.199a15.024 15.024 0 01-.224.001 12.349 12.349 0 01-2.713-.281q-1.894-.426-3.288-1.499a7.594 7.594 0 01-.499-.42 7.252 7.252 0 01-2.268-4.306 10.445 10.445 0 01-.132-1.694v-22a12.164 12.164 0 00-.275-2.714Q430.294 37.5 425.4 37.5a10.143 10.143 0 00-2.768.359 7.582 7.582 0 00-3.582 2.191 8.605 8.605 0 00-2.045 3.982 12.765 12.765 0 00-.305 2.868v19.8q0 3.8-2.4 6-2.334 2.14-6.276 2.199a15.024 15.024 0 01-.224.001 12.349 12.349 0 01-2.713-.281q-1.894-.426-3.288-1.499a7.594 7.594 0 01-.499-.42 7.252 7.252 0 01-2.268-4.306 10.445 10.445 0 01-.132-1.694V11.3a7.988 7.988 0 01.55-3.006 7.364 7.364 0 011.95-2.744 8.528 8.528 0 013.971-1.984A12.343 12.343 0 01408 3.3a11.806 11.806 0 012.714.296A8.211 8.211 0 01414.3 5.4q2.4 2.1 2.4 5.6v20q2.7-3.5 6.7-5.3a20.381 20.381 0 015.973-1.624 25.399 25.399 0 013.027-.176 22.336 22.336 0 014.946.513q4.967 1.128 7.854 4.737a16.445 16.445 0 012.641 4.934q.816 2.353 1.205 5.261a43.527 43.527 0 01.354 5.755zm-304.3 0v21.6q0 3.8-2.4 6-2.334 2.14-6.276 2.199a15.024 15.024 0 01-.224.001 12.349 12.349 0 01-2.713-.281q-1.894-.426-3.288-1.499a7.594 7.594 0 01-.499-.42 7.252 7.252 0 01-2.268-4.306 10.445 10.445 0 01-.132-1.694V45.9a19.798 19.798 0 00-.119-2.256q-.311-2.698-1.431-4.144a4.988 4.988 0 00-2.987-1.833 7.804 7.804 0 00-1.663-.167 10.143 10.143 0 00-2.768.359 7.582 7.582 0 00-3.582 2.191 8.605 8.605 0 00-2.045 3.982 12.765 12.765 0 00-.305 2.868v19.8q0 3.8-2.4 6-2.334 2.14-6.276 2.199a15.024 15.024 0 01-.224.001 12.349 12.349 0 01-2.713-.281q-1.894-.426-3.288-1.499A7.594 7.594 0 0197 72.7a7.252 7.252 0 01-2.268-4.306A10.445 10.445 0 0194.6 66.7V32.1a7.988 7.988 0 01.55-3.006 7.364 7.364 0 011.95-2.744q2.5-2.25 6.5-2.25a11.158 11.158 0 012.531.272 7.561 7.561 0 013.519 1.828q2.25 2.1 2.25 5.5 2.6-3.8 6.7-5.8a19.949 19.949 0 017.408-1.941 23.908 23.908 0 011.692-.059 23.37 23.37 0 015.061.513q5.083 1.128 8.039 4.737a16.441 16.441 0 012.764 5.107Q145.1 38.705 145.1 45.1zm18.1 29a35.669 35.669 0 002.272.414q3.899.586 9.028.586 5.26 0 9.416-1.156a21.434 21.434 0 006.834-3.194 18.168 18.168 0 00.575-.43q5.475-4.275 5.475-11.22a17.116 17.116 0 00-.39-3.764 11.159 11.159 0 00-3.61-6.186 12.572 12.572 0 00-1.216-.921Q187.458 45.465 179.1 44q-4.44-.842-6.624-1.567A11.005 11.005 0 01171.35 42q-1.95-.9-1.95-2.5a2.187 2.187 0 01.67-1.625 3.171 3.171 0 01.73-.525 5.344 5.344 0 011.131-.437q1.156-.313 2.769-.313a21.859 21.859 0 01.492.006q1.051.023 1.981.15a12.468 12.468 0 011.877.394 22.73 22.73 0 01.898.288q.773.266 1.63.615a43.883 43.883 0 011.722.747q2.25 1.063 4.11 1.461a10.006 10.006 0 002.09.239 4.332 4.332 0 002.477-.742A5.447 5.447 0 00193.2 38.6a6.719 6.719 0 001.216-2.431 8.638 8.638 0 00.284-2.269 8.789 8.789 0 00-.128-1.535A5.901 5.901 0 00191.6 28.1a25.091 25.091 0 00-2.838-1.476A30.396 30.396 0 00184.05 25q-4.25-1.1-8.75-1.1a33.557 33.557 0 00-3.757.205A26.89 26.89 0 00164.1 26a22.772 22.772 0 00-2.932 1.479 17.544 17.544 0 00-4.918 4.321q-2.85 3.7-2.85 8.3a16.747 16.747 0 00.313 3.319 11.224 11.224 0 003.637 6.431 12.817 12.817 0 00.702.57q2.771 2.095 7.534 3.486A49.932 49.932 0 00170.2 55a380.659 380.659 0 01.773.156q4.393.888 6.327 1.394 2.1.55 2.85 1.15a1.905 1.905 0 01.653.974 2.576 2.576 0 01.097.726 2.101 2.101 0 01-.809 1.684 3.624 3.624 0 01-.741.466 6.331 6.331 0 01-1.222.433q-1.27.317-3.028.317-2.404 0-4.268-.24a18.067 18.067 0 01-1.982-.36 46.501 46.501 0 01-1.189-.308q-1.026-.28-2.166-.637A86.156 86.156 0 01163.2 60a39.052 39.052 0 00-1.182-.476q-1.144-.438-2.018-.674a9.704 9.704 0 00-.917-.199 11.366 11.366 0 00-1.883-.151 4.552 4.552 0 00-2.189.527 4.933 4.933 0 00-1.461 1.223 6.079 6.079 0 00-1.212 2.418 8.245 8.245 0 00-.238 2.032q0 2.1.8 3.8a6.179 6.179 0 00.606 1.03 4.424 4.424 0 001.594 1.37q3.5 2.2 8.1 3.2zm194.8 0a35.669 35.669 0 002.272.414q3.899.586 9.028.586 5.26 0 9.416-1.156a21.434 21.434 0 006.834-3.194 18.168 18.168 0 00.575-.43q5.475-4.275 5.475-11.22a17.116 17.116 0 00-.39-3.764 11.159 11.159 0 00-3.61-6.186 12.572 12.572 0 00-1.216-.921Q382.258 45.465 373.9 44q-4.44-.842-6.624-1.567A11.005 11.005 0 01366.15 42q-1.95-.9-1.95-2.5a2.187 2.187 0 01.67-1.625 3.171 3.171 0 01.73-.525 5.344 5.344 0 011.131-.437q1.156-.313 2.769-.313a21.859 21.859 0 01.492.006q1.051.023 1.981.15a12.468 12.468 0 011.877.394 22.73 22.73 0 01.898.288q.773.266 1.63.615a43.883 43.883 0 011.722.747q2.25 1.063 4.11 1.461a10.006 10.006 0 002.09.239 4.332 4.332 0 002.477-.742A5.447 5.447 0 00388 38.6a6.719 6.719 0 001.216-2.431 8.638 8.638 0 00.284-2.269 8.789 8.789 0 00-.128-1.535A5.901 5.901 0 00386.4 28.1a25.091 25.091 0 00-2.838-1.476A30.396 30.396 0 00378.85 25q-4.25-1.1-8.75-1.1a33.557 33.557 0 00-3.757.205A26.89 26.89 0 00358.9 26a22.772 22.772 0 00-2.932 1.479 17.544 17.544 0 00-4.918 4.321q-2.85 3.7-2.85 8.3a16.747 16.747 0 00.313 3.319 11.224 11.224 0 003.637 6.431 12.817 12.817 0 00.702.57q2.771 2.095 7.534 3.486A49.932 49.932 0 00365 55a380.659 380.659 0 01.773.156q4.393.888 6.327 1.394 2.1.55 2.85 1.15a1.905 1.905 0 01.653.974 2.576 2.576 0 01.097.726 2.101 2.101 0 01-.809 1.684 3.624 3.624 0 01-.741.466 6.331 6.331 0 01-1.222.433q-1.27.317-3.028.317-2.404 0-4.268-.24a18.067 18.067 0 01-1.982-.36 46.501 46.501 0 01-1.189-.308q-1.026-.28-2.166-.637A86.156 86.156 0 01358 60a39.052 39.052 0 00-1.182-.476q-1.144-.438-2.018-.674a9.704 9.704 0 00-.917-.199A11.366 11.366 0 00352 58.5a4.552 4.552 0 00-2.189.527 4.933 4.933 0 00-1.461 1.223 6.079 6.079 0 00-1.212 2.418 8.245 8.245 0 00-.238 2.032q0 2.1.8 3.8a6.179 6.179 0 00.606 1.03 4.424 4.424 0 001.594 1.37q3.5 2.2 8.1 3.2zm-136.1-6v17a8.243 8.243 0 01-.392 2.602A6.74 6.74 0 01219.5 90.7a8.263 8.263 0 01-3.769 1.847 11.971 11.971 0 01-2.531.253 12.146 12.146 0 01-2.85-.316 8.468 8.468 0 01-3.75-1.934q-2.5-2.25-2.5-5.75V32.3a9.463 9.463 0 01.359-2.669 7.31 7.31 0 011.991-3.281 7.864 7.864 0 013.795-1.984 11.616 11.616 0 012.555-.266 11.779 11.779 0 012.646.282 8.125 8.125 0 013.504 1.718 7.485 7.485 0 012.605 4.893 9.862 9.862 0 01.045.407 13.906 13.906 0 014.7-4.697 17.323 17.323 0 011.45-.803 19.567 19.567 0 017.664-1.964 23.22 23.22 0 011.286-.036 20.839 20.839 0 017.518 1.334 19.482 19.482 0 013.732 1.916q4.95 3.25 7.7 9.15a29.107 29.107 0 012.41 8.367 37.521 37.521 0 01.34 5.133 35.704 35.704 0 01-.604 6.719 27.118 27.118 0 01-2.146 6.631 22.388 22.388 0 01-3.758 5.614A19.52 19.52 0 01248 72a20.081 20.081 0 01-9.144 3.009 24.938 24.938 0 01-2.156.091 20.297 20.297 0 01-6.368-.981 18.734 18.734 0 01-2.282-.919 16.916 16.916 0 01-3.691-2.375A14.065 14.065 0 01221.9 68.1zM0 65.8V12.3a12.235 12.235 0 01.237-2.486q.311-1.496 1.029-2.64A6.662 6.662 0 012.2 6a7.114 7.114 0 013.128-1.793q1.124-.324 2.471-.39A14.386 14.386 0 018.5 3.8h25.6a36.969 36.969 0 017.274.672Q47.984 5.799 52.3 9.75q6.5 5.95 6.5 16.55a27.141 27.141 0 01-.846 6.966A19.367 19.367 0 0152.25 42.8q-6.012 5.508-16.281 5.96a42.525 42.525 0 01-1.869.04H18.4v17a11.381 11.381 0 01-.337 2.849A8.012 8.012 0 0115.9 72.45a8.325 8.325 0 01-4.114 2.174A12.346 12.346 0 019.1 74.9a11.651 11.651 0 01-2.792-.316A8.066 8.066 0 012.45 72.45Q0 70 0 65.8zm339.9-19.9v20.9q0 3.8-2.25 5.95-2.25 2.15-6.25 2.15a10.038 10.038 0 01-2.637-.33 7.623 7.623 0 01-3.113-1.67 7.168 7.168 0 01-2.303-4.174 9.851 9.851 0 01-.147-1.226q-1.4 3.6-4.7 5.6-3.3 2-7.9 2a21.83 21.83 0 01-5.633-.703 18.712 18.712 0 01-3.567-1.347q-4.1-2.05-6.45-5.7a14.85 14.85 0 01-2.347-7.963 17.838 17.838 0 01-.003-.287 16.556 16.556 0 01.355-3.531q.634-2.901 2.395-4.919a11.583 11.583 0 012.964-2.384q1.404-.812 3.181-1.423a26.569 26.569 0 012.605-.743 43.209 43.209 0 014.16-.738q4.694-.618 11.118-.659a144.478 144.478 0 01.922-.003h2.7v-1.2a12.074 12.074 0 00-.126-1.814q-.324-2.122-1.474-3.236-1.5-1.453-4.935-1.544A17.646 17.646 0 00316 36.9a17.488 17.488 0 00-2.607.222q-2.771.422-6.636 1.65A88.158 88.158 0 00304 39.7a18.461 18.461 0 01-1.498.456q-.718.183-1.351.269a7.841 7.841 0 01-1.051.075 5.608 5.608 0 01-1.899-.308A4.811 4.811 0 01296.1 38.7a6.276 6.276 0 01-1.289-2.679A9.153 9.153 0 01294.6 34a8.816 8.816 0 01.124-1.522q.15-.851.479-1.542a4.835 4.835 0 01.297-.536 6.037 6.037 0 011.042-1.207q.765-.691 1.858-1.293a26.356 26.356 0 013.274-1.394q2.462-.87 5.526-1.506a51.404 51.404 0 019.682-1.094 47.494 47.494 0 01.718-.006 37.799 37.799 0 016.235.479q3.285.551 5.878 1.734a16.042 16.042 0 014.737 3.237 16.955 16.955 0 014.001 6.606q1.449 4.221 1.449 9.944zm-73.3 20.8V11.6a10.478 10.478 0 01.275-2.475A6.735 6.735 0 01269.15 5.4a9.12 9.12 0 014.583-1.976A12.274 12.274 0 01275.5 3.3q3.8 0 6.35 2.1a6.748 6.748 0 012.289 3.779 10.532 10.532 0 01.261 2.421v55.1a10.466 10.466 0 01-.261 2.417q-.555 2.34-2.289 3.733a9.19 9.19 0 01-4.419 1.906 12.439 12.439 0 01-1.931.144 11.648 11.648 0 01-2.983-.364 8.96 8.96 0 01-3.367-1.686 6.567 6.567 0 01-2.275-3.68q-.275-1.124-.275-2.47zm-200.1 0V32.3a10.466 10.466 0 01.262-2.416q.555-2.34 2.288-3.734a9.19 9.19 0 014.42-1.905 12.439 12.439 0 011.93-.145 11.648 11.648 0 012.984.365 8.96 8.96 0 013.366 1.685 6.567 6.567 0 012.276 3.68q.274 1.125.274 2.47v34.4a10.466 10.466 0 01-.261 2.417q-.555 2.34-2.289 3.733a9.19 9.19 0 01-4.419 1.906 12.439 12.439 0 01-1.931.144 11.648 11.648 0 01-2.983-.364 8.96 8.96 0 01-3.367-1.686 6.567 6.567 0 01-2.275-3.68q-.275-1.124-.275-2.47zm-34.9-49H18.4V35h13.2a19.839 19.839 0 002.659-.166q1.37-.185 2.477-.579A7.547 7.547 0 0039.15 32.9a6.562 6.562 0 001.973-3.063q.343-1.074.44-2.38A14.344 14.344 0 0041.6 26.4a10.772 10.772 0 00-.567-3.652Q39.218 17.7 31.6 17.7zm199.7 44.1q4.6 0 7.05-3.1 1.89-2.391 2.322-6.39a23.399 23.399 0 00.128-2.51q0-4.003-1.076-6.778a10.29 10.29 0 00-1.424-2.572 8.135 8.135 0 00-5.847-3.185 11.86 11.86 0 00-1.253-.065 10.559 10.559 0 00-3.035.414A7.929 7.929 0 00224.1 40.4a10.552 10.552 0 00-1.709 3.336q-.469 1.478-.66 3.268a24.527 24.527 0 00-.131 2.596q0 5.9 2.5 9.05a8.114 8.114 0 005.249 3 12.1 12.1 0 001.951.15zM75.4 17.1q-4.5 0-7.15-2.35a7.748 7.748 0 01-2.616-5.386A10.749 10.749 0 0165.6 8.5a9.26 9.26 0 01.405-2.802A7.363 7.363 0 0168.25 2.3 8.982 8.982 0 0171.933.41Q73.502 0 75.4 0a13.692 13.692 0 013.058.323A9.335 9.335 0 0182.5 2.3q2.7 2.3 2.7 6.2a9.278 9.278 0 01-.433 2.901 7.553 7.553 0 01-2.217 3.349 8.954 8.954 0 01-3.799 1.963q-1.523.387-3.351.387zm247.6 37v-1.2h-1.6q-4.923 0-7.657.681a9.646 9.646 0 00-1.443.469q-2.64 1.125-2.698 3.732a5.299 5.299 0 00-.002.118 5.98 5.98 0 00.278 1.86 4.975 4.975 0 001.172 1.94 4.855 4.855 0 003.189 1.477 6.595 6.595 0 00.561.023q3.6 0 5.9-2.55a8.803 8.803 0 002.147-4.584A12.176 12.176 0 00323 54.1z" vector-effect="non-scaling-stroke" stroke-linecap="round" fill-rule="evenodd" font-size="12" stroke="#000" stroke-width=".25mm"/>
</svg>