<svg width="382" height="105" xmlns="http://www.w3.org/2000/svg">
  <path d="M339.2 90.3V3.9h18v20.4a14.627 14.627 0 011.978-3.867q3.044-4.133 8.722-4.133a18.55 18.55 0 014.469.506A12.153 12.153 0 01379.1 21q3.274 4.049 3.727 10.697a32.4 32.4 0 01.073 2.203v56.4h-17.5V35q0-2.4-1.1-3.9a3.571 3.571 0 00-2.568-1.463 5.277 5.277 0 00-.632-.037 3.334 3.334 0 00-1.568.364q-.642.335-1.135.981a4.491 4.491 0 00-.147.205 6.027 6.027 0 00-.945 2.423 8.071 8.071 0 00-.105 1.327v55.4h-18zm-268 0V17.1h17.5v9.3a18.404 18.404 0 011.325-3.729A13.901 13.901 0 0192.5 19.1q2.7-2.8 7.2-2.8a19.004 19.004 0 014.249.444q2.796.642 4.808 2.21a10.864 10.864 0 011.893 1.896 15.11 15.11 0 012.458 4.816q.674 2.144.932 4.74a34.342 34.342 0 01.16 3.394v56.5H97V35.6a10.125 10.125 0 00-.175-1.933 7.244 7.244 0 00-.775-2.167q-.841-1.506-2.507-1.678a4.313 4.313 0 00-.443-.022q-2.46 0-3.384 2.034a4.839 4.839 0 00-.166.416q-.571 1.646-.758 4.037A32.262 32.262 0 0088.7 38.8v51.5H71.2zm48.3-21.2l.1-5.8h17.5l.1 8.6a10.824 10.824 0 00.093 1.468q.099.724.305 1.314a4.349 4.349 0 00.602 1.168 3.116 3.116 0 001.591 1.11q.739.24 1.709.24a2.91 2.91 0 002.781-1.705Q145 74.083 145 71.5a17.308 17.308 0 00-.178-2.562q-.199-1.327-.62-2.41a7.955 7.955 0 00-.852-1.628 15.16 15.16 0 00-1.438-1.764q-.8-.853-1.826-1.741A36.432 36.432 0 00138.1 59.8l-9.3-7.2a33.081 33.081 0 01-3.22-2.81q-1.591-1.593-2.705-3.23a17.271 17.271 0 01-.975-1.61 15.116 15.116 0 01-1.238-3.259q-.862-3.278-.862-7.891 0-5.6 2.95-9.55a17.863 17.863 0 016.948-5.558 21.434 21.434 0 01.902-.392 27.009 27.009 0 017.434-1.824 33.286 33.286 0 013.466-.176 30.8 30.8 0 018.429 1.051Q162.8 21.02 162.8 37.5v1.4h-18.1v-2.8q0-2.311-.671-4.029a7.855 7.855 0 00-.179-.421q-.77-1.675-2.482-1.833A3.995 3.995 0 00141 29.8q-1.8 0-2.75 1.05a3.531 3.531 0 00-.799 1.535q-.151.598-.151 1.315a8.221 8.221 0 00.468 2.837A7.033 7.033 0 00140.4 39.9l10.8 7.9a40.07 40.07 0 014.844 4.196 29.547 29.547 0 014.056 5.154 19.867 19.867 0 012.373 5.912q.727 3.108.727 6.838a28.821 28.821 0 01-.624 6.188q-1.279 5.817-5.176 9.512a19.082 19.082 0 01-8.244 4.521q-3.568.979-7.956.979-17.231 0-20.779-13.871a32.864 32.864 0 01-.921-8.129zm170.6 0l.1-5.8h17.5l.1 8.6a10.824 10.824 0 00.093 1.468q.099.724.305 1.314a4.349 4.349 0 00.602 1.168 3.116 3.116 0 001.591 1.11q.739.24 1.709.24a2.91 2.91 0 002.781-1.705q.719-1.412.719-3.995a17.308 17.308 0 00-.178-2.562q-.199-1.327-.62-2.41a7.955 7.955 0 00-.852-1.628 15.16 15.16 0 00-1.438-1.764q-.8-.853-1.826-1.741A36.432 36.432 0 00308.7 59.8l-9.3-7.2a33.081 33.081 0 01-3.22-2.81q-1.591-1.593-2.705-3.23a17.271 17.271 0 01-.975-1.61 15.116 15.116 0 01-1.238-3.259q-.862-3.278-.862-7.891 0-5.6 2.95-9.55a17.863 17.863 0 016.948-5.558 21.434 21.434 0 01.902-.392 27.009 27.009 0 017.434-1.824 33.286 33.286 0 013.466-.176 30.8 30.8 0 018.429 1.051Q333.4 21.02 333.4 37.5v1.4h-18.1v-2.8q0-2.311-.671-4.029a7.855 7.855 0 00-.179-.421q-.77-1.675-2.482-1.833a3.995 3.995 0 00-.368-.017q-1.8 0-2.75 1.05a3.531 3.531 0 00-.799 1.535q-.151.598-.151 1.315a8.221 8.221 0 00.468 2.837A7.033 7.033 0 00311 39.9l10.8 7.9a40.07 40.07 0 014.844 4.196 29.547 29.547 0 014.056 5.154 19.867 19.867 0 012.373 5.912q.727 3.108.727 6.838a28.821 28.821 0 01-.624 6.188Q331.897 81.905 328 85.6a19.082 19.082 0 01-8.244 4.521q-3.568.979-7.956.979-17.231 0-20.779-13.871a32.864 32.864 0 01-.921-8.129zm-27.5-24.5l4.8-1.6v-7.5a11.738 11.738 0 00-.112-1.681q-.124-.852-.383-1.544a4.968 4.968 0 00-.655-1.225 4.584 4.584 0 00-.798-.846 3.034 3.034 0 00-1.952-.704q-1.4 0-2.45 1.3-.952 1.178-1.041 3.096a8.707 8.707 0 00-.009.404v4.4h-17v-2.4a36.403 36.403 0 01.378-5.443q.423-2.79 1.321-4.999a13.412 13.412 0 013.351-4.958 14.861 14.861 0 014.797-2.848Q257.464 16.3 264.5 16.3a28.459 28.459 0 016.469.696 19.832 19.832 0 018.331 4.054 15.446 15.446 0 015.387 9.589A22.79 22.79 0 01285 34.5v55.8h-17.4v-8.7q-1.3 4.5-4.15 7-2.85 2.5-6.75 2.5a19.838 19.838 0 01-4.248-.422q-2.557-.562-4.407-1.869a10.024 10.024 0 01-2.995-3.359 20.91 20.91 0 01-1.857-4.687q-1.253-4.588-1.292-11.045a69.038 69.038 0 01-.001-.418q0-8.069 1.981-12.616a14.556 14.556 0 01.269-.584 16.557 16.557 0 012.584-3.875 13.62 13.62 0 013.666-2.875 36.519 36.519 0 012.582-1.245q2.851-1.253 6.974-2.642a155.487 155.487 0 012.644-.863zm-94 60.3V17.1h17.8V21a12.391 12.391 0 018.87-4.627 17.654 17.654 0 011.63-.073 19.746 19.746 0 014.374.451q2.772.63 4.748 2.141A10.666 10.666 0 01208.75 22a21.142 21.142 0 012.106 5.125q1.244 4.52 1.244 10.675v27.1q0 5.778-.451 10.134a50.8 50.8 0 01-.549 3.916 18.674 18.674 0 01-1.399 4.508 14.581 14.581 0 01-3.001 4.292q-3.4 3.35-10.3 3.35a18.765 18.765 0 01-3.9-.38q-2.398-.509-4.204-1.704A10.227 10.227 0 01186.4 87.4v17.5h-17.8zM0 90.3V4.4h22.7a24.961 24.961 0 015.529.571q6.06 1.377 9.171 6.079a22.532 22.532 0 012.681 5.852Q41.8 22.5 41.8 30.5a67.923 67.923 0 01-.308 6.702q-.712 7.149-3.062 11.651a18.317 18.317 0 01-.53.947 12.591 12.591 0 01-7.526 5.656q-2.834.844-6.474.844h-7v34H0zm236.4 0h-17.8V3.9h17.8v86.4zm-172.1 0H46.8V17.1h17.5v73.2zm130.1-21.4V37.8a33.554 33.554 0 00-.055-1.995q-.118-1.972-.487-3.299A8.096 8.096 0 00193.7 32a2.874 2.874 0 00-.855-1.286q-.528-.443-1.305-.611A4.92 4.92 0 00190.5 30a3.359 3.359 0 00-3.199 2.145q-.901 1.893-.901 5.455v32.1a26.007 26.007 0 00.082 2.139q.173 2.087.71 3.466a7.15 7.15 0 00.058.145 3.268 3.268 0 00.939 1.308q.61.499 1.488.662a5.044 5.044 0 00.923.08 3.957 3.957 0 001.216-.174q1.208-.389 1.744-1.648a4.259 4.259 0 00.14-.378 11.652 11.652 0 00.367-1.559q.286-1.671.326-4.044a46.984 46.984 0 00.007-.797zm72.9 2.9V51.4a19.261 19.261 0 00-2.439 1.126q-1.237.687-2.167 1.494a9.209 9.209 0 00-1.144 1.18 7.727 7.727 0 00-1.358 2.65q-.338 1.123-.444 2.472a16.343 16.343 0 00-.048 1.278V71a16.199 16.199 0 00.137 2.209q.34 2.456 1.523 3.506a3.248 3.248 0 002.24.785 3.762 3.762 0 001.163-.169q1.109-.36 1.687-1.481.77-1.495.843-3.607a12.972 12.972 0 00.007-.443zm-203-59.6H46.8V0h17.5v12.2zM16.9 40.8h1a13.29 13.29 0 001.613-.091q1.741-.214 2.762-.929a3.66 3.66 0 00.175-.13q1.45-1.15 1.9-3.3.45-2.15.45-6.15a38.627 38.627 0 00-.085-2.657q-.176-2.55-.721-4.179a7.412 7.412 0 00-.394-.964q-1.116-2.232-4.309-2.388A10.072 10.072 0 0018.8 20h-1.9v20.8z" vector-effect="non-scaling-stroke" stroke-linecap="round" fill-rule="evenodd" font-size="12" stroke="#000" stroke-width=".945" fill="#ooo"/>
</svg>