<svg width="448" height="99" xmlns="http://www.w3.org/2000/svg">
  <path d="M387.6 1.8V0h24.1v36.6q1.6-4.6 4.9-7.4a10.305 10.305 0 013.316-1.839q1.508-.525 3.366-.764a26.145 26.145 0 013.318-.197q12.239 0 14.814 10.411a26.267 26.267 0 01.686 6.289v30.1h5.6V75h-28.3v-1.8h4.1V40.7a70.569 70.569 0 00-.038-2.422q-.116-3.342-.579-4.838a4.106 4.106 0 00-.183-.49 2.993 2.993 0 00-.834-1.108q-.795-.642-2.066-.642-2.563 0-4.645 2.695a13.992 13.992 0 00-1.005 1.505q-2.45 4.2-2.45 10.2v27.6h4.3V75h-28.4v-1.8h5.5V1.8h-5.5zM94.8 29.2v-1.8h24.1v9.2q1.6-4.6 4.9-7.4a10.305 10.305 0 013.316-1.839q1.508-.525 3.366-.764a26.145 26.145 0 013.318-.197q12.239 0 14.814 10.411a26.267 26.267 0 01.686 6.289v30.1h5.6V75h-28.3v-1.8h4.1V40.7a70.569 70.569 0 00-.038-2.422q-.116-3.342-.579-4.838a4.106 4.106 0 00-.183-.49 2.993 2.993 0 00-.834-1.108q-.795-.642-2.066-.642-2.563 0-4.645 2.695a13.992 13.992 0 00-1.005 1.505q-2.45 4.2-2.45 10.2v27.6h4.3V75H94.8v-1.8h5.5v-44h-5.5zm104.3-1.8h23.7v7.9a16.031 16.031 0 013.297-4.975q3.131-3.128 7.941-3.763a19.563 19.563 0 012.562-.162 19.043 19.043 0 015.902.87 15.077 15.077 0 017.448 5.33q4.728 6.171 4.75 18.683a66.567 66.567 0 010 .117q0 12.6-5.15 18.6a16.365 16.365 0 01-8.189 5.084q-2.631.744-5.78.884A33.481 33.481 0 01234.1 76a30.893 30.893 0 01-2.51-.095q-2.965-.242-4.69-1.105a9.259 9.259 0 01-3.511-3.095A11.332 11.332 0 01223 71.1V97h12.9v1.8h-37V97h5.5V29.2h-5.3v-1.8zM159.7 76h-1.2V58.1h1.2q2.569 8.595 6.895 12.115a12.253 12.253 0 00.105.085 15.883 15.883 0 007.368 3.208 21.701 21.701 0 003.632.292 23.955 23.955 0 003.466-.229q4.186-.615 5.77-2.889a5.771 5.771 0 00.964-3.382 4.915 4.915 0 00-.381-1.974q-.491-1.132-1.612-1.91a6.195 6.195 0 00-.507-.316 25.253 25.253 0 00-3.682-1.678q-1.897-.699-4.134-1.243a50.326 50.326 0 00-2.184-.479 48.464 48.464 0 01-5.529-1.805Q166.588 56.588 164 54.9a11.745 11.745 0 01-5.237-8.188 18.647 18.647 0 01-.263-3.212q0-7.8 4.8-12.45a16.137 16.137 0 018.332-4.24 23.236 23.236 0 014.468-.41 23.034 23.034 0 016.56.991 29.378 29.378 0 013.54 1.309q1.501.632 2.44.765a3.305 3.305 0 00.46.035 2.312 2.312 0 001.678-.678 2.755 2.755 0 00.022-.022 4.667 4.667 0 00.405-.473q.411-.54.905-1.411a26.396 26.396 0 00.39-.716h1.1v15.3h-1.2q-2.948-7.516-7.769-10.686A14.284 14.284 0 00176.6 28.5q-4.7 0-7 1.65t-2.3 4.15q0 1.111.384 1.865a2.651 2.651 0 00.316.485 36.801 36.801 0 00.331.397q.323.38.565.641a8.235 8.235 0 00.204.212 2.754 2.754 0 00.299.255q.382.286 1.001.595a39.49 39.49 0 00.431.213q.578.28 1.008.462a12.722 12.722 0 00.061.025q.599.249 1.844.648a78.15 78.15 0 00.006.002 31.827 31.827 0 00.584.181q.548.164.931.252a5.783 5.783 0 00.335.067q6.8 1.7 9.8 2.95 3 1.25 5.7 3.05 5.391 3.725 5.498 11.918a25.545 25.545 0 01.002.332 22.712 22.712 0 01-.532 5.076q-.79 3.445-2.752 5.928a13.349 13.349 0 01-1.716 1.796q-5 4.35-13.7 4.35-6.2 0-12-2.9a8.499 8.499 0 00-.569-.35q-.575-.321-1.006-.413A1.562 1.562 0 00164 72.3a3.022 3.022 0 00-1.67.542q-1.037.68-2.051 2.211a16.181 16.181 0 00-.579.947zm188 0h-1.2V58.1h1.2q2.569 8.595 6.895 12.115a12.253 12.253 0 00.105.085 15.883 15.883 0 007.368 3.208 21.701 21.701 0 003.632.292 23.955 23.955 0 003.466-.229q4.186-.615 5.77-2.889a5.771 5.771 0 00.964-3.382 4.915 4.915 0 00-.381-1.974q-.491-1.132-1.612-1.91a6.195 6.195 0 00-.507-.316 25.253 25.253 0 00-3.682-1.678q-1.897-.699-4.134-1.243a50.326 50.326 0 00-2.184-.479 48.464 48.464 0 01-5.529-1.805Q354.588 56.588 352 54.9a11.745 11.745 0 01-5.237-8.188 18.647 18.647 0 01-.263-3.212q0-7.8 4.8-12.45a16.137 16.137 0 018.332-4.24 23.236 23.236 0 014.468-.41 23.034 23.034 0 016.56.991 29.378 29.378 0 013.54 1.309q1.501.632 2.44.765a3.305 3.305 0 00.46.035 2.312 2.312 0 001.678-.678 2.755 2.755 0 00.022-.022 4.667 4.667 0 00.405-.473q.411-.54.905-1.411a26.396 26.396 0 00.39-.716h1.1v15.3h-1.2q-2.948-7.516-7.769-10.686A14.284 14.284 0 00364.6 28.5q-4.7 0-7 1.65t-2.3 4.15q0 1.111.384 1.865a2.651 2.651 0 00.316.485 36.801 36.801 0 00.331.397q.323.38.565.641a8.235 8.235 0 00.204.212 2.754 2.754 0 00.299.255q.382.286 1.001.595a39.49 39.49 0 00.431.213q.578.28 1.008.462a12.722 12.722 0 00.061.025q.599.249 1.844.648a78.15 78.15 0 00.006.002 31.827 31.827 0 00.584.181q.548.164.931.252a5.783 5.783 0 00.335.067q6.8 1.7 9.8 2.95 3 1.25 5.7 3.05 5.391 3.725 5.498 11.918a25.545 25.545 0 01.002.332 22.712 22.712 0 01-.532 5.076q-.79 3.445-2.752 5.928a13.349 13.349 0 01-1.716 1.796q-5 4.35-13.7 4.35-6.2 0-12-2.9a8.499 8.499 0 00-.569-.35q-.575-.321-1.006-.413A1.562 1.562 0 00352 72.3a3.022 3.022 0 00-1.67.542q-1.037.68-2.051 2.211a16.181 16.181 0 00-.579.947zm-34.4-24.5h2.9v-7.7a137.237 137.237 0 00-.05-3.857q-.162-5.717-.842-8.346a9.643 9.643 0 00-.158-.547 6.172 6.172 0 00-.695-1.496q-1.079-1.644-3.083-1.747a5.299 5.299 0 00-.272-.007q-1.8 0-3.25.95a3.444 3.444 0 00-.88.806q-.56.746-.57 1.758a3.731 3.731 0 000 .036 9.762 9.762 0 00.396 2.714 11.403 11.403 0 00.204.636h2.5a11.433 11.433 0 01.574 2.156q.226 1.327.226 2.894a6.314 6.314 0 01-1.842 4.475 8.924 8.924 0 01-.658.625Q305.3 47 301.5 47a12.875 12.875 0 01-3.351-.397q-4.369-1.181-5.101-5.871a13.184 13.184 0 01-.148-2.032 10.175 10.175 0 016.162-9.731q4.574-2.266 12.546-2.533a65.456 65.456 0 012.192-.036q11.9 0 16.45 4.05a11.161 11.161 0 012.773 3.987Q334.8 38.55 334.8 45.3v20.3a13.929 13.929 0 00.102 1.767q.239 1.856 1.037 2.708a2.302 2.302 0 001.761.725 2.382 2.382 0 001.964-1.156q1.374-1.925 1.876-7.06a53.363 53.363 0 00.16-2.084l1.5.1a44.586 44.586 0 01-.356 4.056q-.548 3.97-1.811 6.368A8.588 8.588 0 01339.9 72.7a8.694 8.694 0 01-3.532 2.369Q333.906 76 330.4 76a29.34 29.34 0 01-4.724-.348q-2.366-.388-4.136-1.208a8.405 8.405 0 01-4.94-5.844 14.085 14.085 0 01-1.158 2.569q-.908 1.549-2.15 2.582a8.449 8.449 0 01-.592.449 8.699 8.699 0 01-2.37 1.123q-2.164.677-5.23.677-13.269 0-14.642-9.726a16.994 16.994 0 01-.158-2.374 13.741 13.741 0 01.485-3.778 9.127 9.127 0 015.165-5.972 21.731 21.731 0 014.093-1.39q4.253-1.032 10.436-1.219a93.659 93.659 0 012.821-.041zM0 6.9V5h29.4q13.489 0 20.833 3.471a20.967 20.967 0 011.667.879q7.05 4.145 7.383 14.507A32.467 32.467 0 0159.3 24.9a26.518 26.518 0 01-.712 6.366A15.81 15.81 0 0150.3 42a33.033 33.033 0 01-6.903 2.535q-6.815 1.737-16.295 1.765a105.356 105.356 0 01-.302 0H26v26.8h12.5V75H0v-1.9h6.5V6.9H0zm257.3-5.1V0h24.5v73.2h5.6V75h-29.7v-1.8h5.5V1.8h-5.9zM62.5 29.2v-1.8H87v45.8h5.6V75H62.9v-1.8h5.5v-44h-5.9zM223 44.5v18.3a18.206 18.206 0 00.281 3.279q.41 2.24 1.419 4.021a6.481 6.481 0 001.375 1.723q1.472 1.277 3.625 1.277 2.959 0 4.23-3.539a11.52 11.52 0 00.27-.861q1.2-4.4 1.2-15.4v-5.2a166.711 166.711 0 00-.055-4.457q-.165-6.145-.827-8.936a11.323 11.323 0 00-.118-.457q-1-3.55-3.9-3.55a4.651 4.651 0 00-2.821.989q-.739.549-1.428 1.403a12.827 12.827 0 00-.951 1.358 14.08 14.08 0 00-1.567 3.75q-.458 1.715-.63 3.747A30.338 30.338 0 00223 44.5zM28.7 6.9H26v37.5h2.1a13.621 13.621 0 003.082-.324q3.565-.829 5.218-3.776 1.944-3.465 2.245-10.574A64.541 64.541 0 0038.7 27v-4.8q0-6.604-1.298-10.13a9.357 9.357 0 00-.852-1.77 6.722 6.722 0 00-3.542-2.749Q31.194 6.9 28.7 6.9zm46.195 13.392a16.358 16.358 0 002.705.208q2.816 0 4.841-.734A7.636 7.636 0 0085.4 17.9a8.628 8.628 0 002.152-3.948 12.255 12.255 0 00.348-3.002 11.694 11.694 0 00-.287-2.668A7.627 7.627 0 0085.3 4.25a7.842 7.842 0 00-1.925-1.271Q81.089 1.9 77.7 1.9a17.084 17.084 0 00-1.49.063q-3.89.34-5.96 2.537a8.665 8.665 0 00-1.998 3.421A10.697 10.697 0 0067.8 11.1a12.847 12.847 0 00.108 1.688A9.629 9.629 0 0070.05 17.8a6.528 6.528 0 002.333 1.749q1.104.507 2.512.743zM316.2 62.4v-9.3h-.7a5.827 5.827 0 00-3.152.813Q309.3 55.819 309.3 62.2v1.6q0 5.2.55 6.7a2.667 2.667 0 00.415.758q.595.742 1.685.742 1.55 0 2.9-2.55 1.35-2.55 1.35-7.05z" vector-effect="non-scaling-stroke" stroke-linecap="round" fill-rule="evenodd" font-size="12" stroke="#000" stroke-width=".945"/>
</svg>